HIERARCHY
ROOT Hips
{
	OFFSET 0.000000 0.000000 0.000000
	CHANNELS 6 Xposition Yposition Zposition Zrotation Yrotation Xrotation 
	JOINT LHipJoint
	{
		OFFSET 0.000000 0.000000 0.000000
		CHANNELS 3 Zrotation Yrotation Xrotation
		JOINT LeftUpLeg
		{
			OFFSET 1.363060 -1.794630 0.839290
			CHANNELS 3 Zrotation Yrotation Xrotation
			JOINT LeftLeg
			{
				OFFSET 2.448110 -6.726130 0.000000
				CHANNELS 3 Zrotation Yrotation Xrotation
				JOINT LeftFoot
				{
					OFFSET 2.562200 -7.039590 0.000000
					CHANNELS 3 Zrotation Yrotation Xrotation
					JOINT LeftToeBase
					{
						OFFSET 0.157640 -0.433110 2.322550
						CHANNELS 3 Zrotation Yrotation Xrotation
						End Site
						{
							OFFSET 0.000000 0.000000 0.000000
						}
					}
				}
			}
		}
	}
	JOINT RHipJoint
	{
		OFFSET 0.000000 0.000000 0.000000
		CHANNELS 3 Zrotation Yrotation Xrotation
		JOINT RightUpLeg
		{
			OFFSET -1.305520 -1.794630 0.839290
			CHANNELS 3 Zrotation Yrotation Xrotation
			JOINT RightLeg
			{
				OFFSET -2.542530 -6.985550 0.000000
				CHANNELS 3 Zrotation Yrotation Xrotation
				JOINT RightFoot
				{
					OFFSET -2.568260 -7.056230 0.000000
					CHANNELS 3 Zrotation Yrotation Xrotation
					JOINT RightToeBase
					{
						OFFSET -0.164730 -0.452590 2.363150
						CHANNELS 3 Zrotation Yrotation Xrotation
						End Site
						{
							OFFSET 0.000000 0.000000 0.000000
						}
					}
				}
			}
		}
	}
	JOINT LowerBack
	{
		OFFSET 0.000000 0.000000 0.000000
		CHANNELS 3 Zrotation Yrotation Xrotation
		JOINT Spine
		{
			OFFSET 0.028270 2.035590 -0.193380
			CHANNELS 3 Zrotation Yrotation Xrotation
			JOINT Spine1
			{
				OFFSET 0.056720 2.048850 -0.042750
				CHANNELS 3 Zrotation Yrotation Xrotation
				JOINT Neck
				{
					OFFSET 0.000000 0.000000 0.000000
					CHANNELS 3 Zrotation Yrotation Xrotation
					JOINT Neck1
					{
						OFFSET -0.054170 1.746240 0.172020
						CHANNELS 3 Zrotation Yrotation Xrotation
						JOINT Head
						{
							OFFSET 0.104070 1.761360 -0.123970
							CHANNELS 3 Zrotation Yrotation Xrotation
							End Site
							{
								OFFSET 0.000000 0.000000 0.000000
							}
						}
					}
				}
				JOINT LeftShoulder
				{
					OFFSET 0.000000 0.000000 0.000000
					CHANNELS 3 Zrotation Yrotation Xrotation
					JOINT LeftArm
					{
						OFFSET 3.362410 1.200890 -0.311210
						CHANNELS 3 Zrotation Yrotation Xrotation
						JOINT LeftForeArm
						{
							OFFSET 4.983000 -0.000000 -0.000000
							CHANNELS 3 Zrotation Yrotation Xrotation
							JOINT LeftHand
							{
								OFFSET 3.483560 -0.000000 -0.000000
								CHANNELS 3 Zrotation Yrotation Xrotation
								JOINT LeftFingerBase
								{
									OFFSET 0.000000 0.000000 0.000000
									CHANNELS 3 Zrotation Yrotation Xrotation
									JOINT LeftHandIndex1
									{
										OFFSET 0.715260 -0.000000 -0.000000
										CHANNELS 3 Zrotation Yrotation Xrotation
										End Site
										{
											OFFSET 0.000000 0.000000 0.000000
										}
									}
								}
								JOINT LThumb
								{
									OFFSET 0.000000 0.000000 0.000000
									CHANNELS 3 Zrotation Yrotation Xrotation
									End Site
									{
										OFFSET 0.000000 0.000000 0.000000
									}
								}
							}
						}
					}
				}
				JOINT RightShoulder
				{
					OFFSET 0.000000 0.000000 0.000000
					CHANNELS 3 Zrotation Yrotation Xrotation
					JOINT RightArm
					{
						OFFSET -3.136600 1.374050 -0.404650
						CHANNELS 3 Zrotation Yrotation Xrotation
						JOINT RightForeArm
						{
							OFFSET -5.241900 -0.000000 -0.000000
							CHANNELS 3 Zrotation Yrotation Xrotation
							JOINT RightHand
							{
								OFFSET -3.444170 -0.000000 -0.000000
								CHANNELS 3 Zrotation Yrotation Xrotation
								JOINT RightFingerBase
								{
									OFFSET 0.000000 0.000000 0.000000
									CHANNELS 3 Zrotation Yrotation Xrotation
									JOINT RightHandIndex1
									{
										OFFSET -0.622530 -0.000000 -0.000000
										CHANNELS 3 Zrotation Yrotation Xrotation
										End Site
										{
											OFFSET 0.000000 0.000000 0.000000
										}
									}
								}
								JOINT RThumb
								{
									OFFSET 0.000000 0.000000 0.000000
									CHANNELS 3 Zrotation Yrotation Xrotation
									End Site
									{
										OFFSET 0.000000 0.000000 0.000000
									}
								}
							}
						}
					}
				}
			}
		}
	}
}
MOTION
Frames: 9
Frame Time: 0.008333
0.338074 17.632020 -12.233719 -0.930336 -4.316288 5.430328 -0.235621 1.196567 1.906721 -13.503109 -3.919049 -12.373522 16.985319 19.224152 80.066013 2.196753 1.869328 34.298254 0.006729 0.413900 1.137517 -0.080804 -1.045416 0.692188 25.919967 10.467715 -21.597162 -3.928166 -13.185393 39.944328 2.665658 -10.645763 -3.152476 -0.111427 2.148457 -5.916238 0.660779 -1.010420 12.674993 1.508123 -1.149266 -2.488194 4.030652 -0.486542 -4.384422 -6.691419 -2.010970 -16.014477 3.965690 -1.386884 5.122180 2.814103 -0.773226 7.416808 -1.690983 2.332662 -2.444657 -85.658566 15.410018 40.872984 121.110745 -60.482717 -89.640327 -0.752018 -1.713260 -23.352902 23.037035 10.524256 5.297516 -7.125000 0.000000 0.000000 -2.513069 42.871637 0.132545 -0.113835 -1.727545 -1.577072 83.510446 -9.937605 45.949683 -130.118960 53.918216 -97.543830 0.738177 -0.969740 -14.193117 -3.335965 18.941745 -1.308541 7.125000 0.000000 0.000000 15.735348 -10.452551 13.137968
0.327841 17.624771 -12.084088 -0.847326 -3.884562 5.477858 -0.183265 1.146283 1.821795 -13.322990 -4.216652 -13.336683 17.308623 19.320990 80.972349 2.113105 2.056497 33.900998 0.013399 0.705616 1.939446 -0.087688 -1.054310 0.739049 25.946826 10.101362 -21.276634 -3.962856 -13.194615 40.076830 2.707107 -10.777590 -3.789048 -0.101746 2.056688 -5.662349 0.627745 -1.041248 12.602960 1.510963 -1.201608 -2.478453 4.057878 -0.511723 -4.262899 -6.778133 -2.120609 -16.234504 4.054592 -1.494216 5.194135 2.864694 -0.818971 7.515897 -1.692969 2.349410 -2.447390 -85.775891 15.333795 40.797211 120.987126 -60.523224 -89.554373 -0.752685 -1.732393 -23.366383 23.187192 10.764614 5.451254 -7.125000 0.000000 0.000000 -2.402146 43.167942 0.110741 -0.126230 -1.718308 -1.582342 83.620679 -9.448661 45.653623 -130.318729 53.826219 -97.684163 0.730586 -0.971679 -14.054102 -3.312214 18.865796 -1.293672 7.125000 0.000000 0.000000 15.755950 -10.528438 13.131450
0.316387 17.637942 -11.928357 -0.678264 -3.482433 5.517198 -0.143176 1.098469 1.748332 -13.275447 -4.463756 -14.222561 17.541358 19.396062 81.630137 2.054615 2.163028 33.612138 0.031065 1.048860 2.884077 -0.077727 -1.067281 0.792360 25.864842 9.660845 -20.884333 -3.964979 -13.167559 40.075509 2.757420 -10.938076 -4.286756 -0.097777 2.015714 -5.549114 0.499858 -1.032228 12.510660 1.499013 -1.218491 -2.482659 4.080221 -0.513006 -4.226464 -6.868997 -2.246069 -16.214392 4.161114 -1.635709 5.220717 2.923257 -0.879285 7.540061 -1.698725 2.368694 -2.450288 -85.826268 15.377116 40.839107 120.956977 -60.535933 -89.524944 -0.760309 -1.766888 -23.491098 23.560835 11.203860 5.763057 -7.125000 0.000000 0.000000 -2.100110 43.717304 0.073269 -0.153740 -1.704476 -1.578085 83.799353 -9.190806 45.272944 -130.673550 53.657337 -97.923255 0.724234 -0.997309 -13.862456 -3.218720 19.066548 -1.271687 7.125000 0.000000 0.000000 15.811984 -10.320297 13.252116
0.304933 17.651114 -11.772626 -0.509203 -3.080304 5.556539 -0.103088 1.050654 1.674869 -13.227904 -4.710860 -15.108438 17.774093 19.471134 82.287925 1.996125 2.269560 33.323278 0.048731 1.392104 3.828708 -0.067766 -1.080252 0.845671 25.782857 9.220328 -20.492032 -3.967102 -13.140503 40.074189 2.807734 -11.098561 -4.784465 -0.093808 1.974739 -5.435880 0.371972 -1.023208 12.418360 1.487062 -1.235374 -2.486866 4.102564 -0.514289 -4.190029 -6.959862 -2.371530 -16.194280 4.267637 -1.777201 5.247299 2.981820 -0.939598 7.564226 -1.704481 2.387977 -2.453187 -85.876646 15.420437 40.881004 120.926828 -60.548641 -89.495515 -0.767933 -1.801382 -23.615813 23.934478 11.643106 6.074860 -7.125000 0.000000 0.000000 -1.798074 44.266665 0.035797 -0.181249 -1.690644 -1.573828 83.978026 -8.932951 44.892265 -131.028372 53.488454 -98.162346 0.717882 -1.022939 -13.670809 -3.125226 19.267300 -1.249701 7.125000 0.000000 0.000000 15.868017 -10.112156 13.372783
0.295406 17.660512 -11.619033 -0.342503 -2.746812 5.574743 -0.066575 1.005860 1.605634 -13.219293 -4.872268 -15.970664 17.970141 19.538589 82.867937 1.945418 2.269784 32.995175 0.050657 1.448452 3.983624 -0.055049 -1.095220 0.898504 25.691419 8.788593 -20.072195 -3.955160 -13.097701 40.013465 2.847648 -11.223240 -5.136183 -0.094082 1.977773 -5.444303 0.239939 -0.980844 12.336151 1.474042 -1.207800 -2.487578 4.120182 -0.493026 -4.161770 -7.022642 -2.479353 -16.119454 4.330013 -1.906701 5.244121 3.012742 -0.997402 7.555528 -1.704489 2.405786 -2.452456 -85.947186 15.492068 40.948596 120.950358 -60.544675 -89.502193 -0.779714 -1.825562 -23.650642 24.279314 11.964491 6.329651 -7.125000 0.000000 0.000000 -1.504674 44.678102 0.014944 -0.206516 -1.682265 -1.567380 84.119559 -8.824322 44.498382 -131.433429 53.292215 -98.428291 0.721581 -1.061487 -13.445364 -3.124127 19.691272 -1.276821 7.125000 0.000000 0.000000 15.855364 -9.669112 13.507257
0.286938 17.667835 -11.466615 -0.177102 -2.451072 5.581323 -0.032030 0.962725 1.538723 -13.232094 -4.986544 -16.819882 18.146011 19.601855 83.405171 1.898994 2.211539 32.645489 0.043925 1.347008 3.704196 -0.040816 -1.111287 0.951074 25.594782 8.361688 -19.637215 -3.935482 -13.046238 39.920070 2.881842 -11.328224 -5.407608 -0.096689 2.005012 -5.519636 0.105625 -0.920141 12.259493 1.460433 -1.155774 -2.486369 4.135201 -0.459363 -4.138008 -7.069977 -2.577476 -16.014535 4.368109 -2.029605 5.224577 3.028463 -1.053824 7.528756 -1.701336 2.422783 -2.449730 -86.028815 15.579270 41.030321 121.003412 -60.531538 -89.528729 -0.793782 -1.844068 -23.636033 24.608307 12.221054 6.553084 -7.125000 0.000000 0.000000 -1.216024 45.013680 0.003231 -0.230548 -1.676884 -1.559725 84.240664 -8.797766 44.097238 -131.866115 53.080929 -98.709006 0.730808 -1.107141 -13.201330 -3.173846 20.238016 -1.330947 7.125000 0.000000 0.000000 15.804934 -9.096870 13.649325
0.278535 17.675890 -11.313985 -0.020027 -2.158048 5.589505 0.001948 0.920132 1.472444 -13.237355 -5.094837 -17.665555 18.315516 19.664448 83.926312 1.853281 2.141490 32.289239 0.037117 1.241713 3.414189 -0.026090 -1.127567 1.003737 25.505462 7.940433 -19.198877 -3.913189 -12.991800 39.815477 2.915838 -11.431208 -5.658131 -0.098728 2.026278 -5.578460 -0.019342 -0.857090 12.182248 1.447173 -1.099210 -2.485461 4.145819 -0.423513 -4.114378 -7.109774 -2.676104 -15.919551 4.401152 -2.154750 5.209687 3.039477 -1.111650 7.506935 -1.697501 2.438837 -2.447451 -86.105237 15.667222 41.117088 121.057638 -60.517964 -89.556366 -0.807490 -1.860770 -23.614967 24.918342 12.454134 6.759272 -7.125000 0.000000 0.000000 -0.942800 45.319700 -0.007471 -0.253615 -1.671748 -1.552764 84.358639 -8.774353 43.694828 -132.299204 52.868421 -98.990699 0.739479 -1.150872 -12.966626 -3.223741 20.757085 -1.383393 7.125000 0.000000 0.000000 15.755550 -8.553082 13.782809
0.270926 17.692948 -11.158745 0.034770 -1.898402 5.617362 0.028946 0.884176 1.413930 -13.149990 -5.129639 -18.467679 18.406833 19.718767 84.249733 1.816316 1.926406 31.852351 0.029374 1.089100 2.994210 -0.005313 -1.146453 1.057551 25.506048 7.588592 -18.719289 -3.858767 -12.900802 39.573312 2.947398 -11.509623 -5.651872 -0.093786 1.974175 -5.434446 -0.029475 -0.765190 12.097796 1.438207 -0.986893 -2.488263 4.102364 -0.360797 -4.092381 -7.056974 -2.780933 -15.946627 4.372128 -2.307423 5.251986 2.992665 -1.186711 7.545925 -1.685277 2.443315 -2.450661 -86.117690 15.764393 41.265805 121.126257 -60.499028 -89.597542 -0.816776 -1.855300 -23.514565 24.995468 12.398710 6.753591 -7.125000 0.000000 0.000000 -0.859100 45.262577 -0.005759 -0.264833 -1.669608 -1.554318 84.438157 -8.789539 43.276854 -132.737232 52.640903 -99.284415 0.741330 -1.170979 -12.846563 -3.275812 20.936152 -1.415184 7.125000 0.000000 0.000000 15.719011 -8.358872 13.810826
0.263318 17.710006 -11.003505 0.089566 -1.638757 5.645220 0.055944 0.848221 1.355415 -13.062624 -5.164441 -19.269803 18.498150 19.773086 84.573154 1.779351 1.711322 31.415464 0.021630 0.936486 2.574231 0.015463 -1.165340 1.111364 25.506633 7.236751 -18.239701 -3.804346 -12.809804 39.331147 2.978958 -11.588037 -5.645613 -0.088844 1.922072 -5.290433 -0.039608 -0.673291 12.013344 1.429240 -0.874576 -2.491064 4.058908 -0.298080 -4.070383 -7.004174 -2.885761 -15.973703 4.343104 -2.460097 5.294286 2.945854 -1.261773 7.584915 -1.673052 2.447792 -2.453871 -86.130142 15.861564 41.414523 121.194876 -60.480092 -89.638718 -0.826062 -1.849831 -23.414162 25.072594 12.343285 6.747910 -7.125000 0.000000 0.000000 -0.775400 45.205454 -0.004047 -0.276051 -1.667468 -1.555871 84.517675 -8.804725 42.858881 -133.175260 52.413386 -99.578132 0.743181 -1.191085 -12.726499 -3.327882 21.115218 -1.446975 7.125000 0.000000 0.000000 15.682473 -8.164661 13.838842
